<svg width="424" height="38" viewBox="0 0 424 38" fill="none" xmlns="http://www.w3.org/2000/svg">
<path d="M0.4 37L13.55 0.499999H21.85L35.4 37H30.35L18.1 3.7L20.5 4.9H14.6L17.15 3.7L5.3 37H0.4ZM8.25 26.1L9.9 21.7H25.65L27.3 26.1H8.25ZM54.05 37.9C51.75 37.9 49.75 37.5 48.05 36.7C46.3833 35.9 45 34.8333 43.9 33.5C42.8 32.1333 41.9667 30.6333 41.4 29C40.8667 27.3667 40.6 25.7333 40.6 24.1V23.2C40.6 21.5 40.8667 19.8333 41.4 18.2C41.9667 16.5667 42.8 15.1 43.9 13.8C45.0333 12.4667 46.4333 11.4 48.1 10.6C49.7667 9.8 51.7167 9.4 53.95 9.4C56.1833 9.4 58.1833 9.81666 59.95 10.65C61.75 11.4833 63.1833 12.6667 64.25 14.2C65.35 15.7 65.9667 17.4833 66.1 19.55H61.5C61.2667 17.8833 60.5 16.5 59.2 15.4C57.9 14.2667 56.15 13.7 53.95 13.7C52.05 13.7 50.4667 14.1333 49.2 15C47.9333 15.8667 46.9833 17.05 46.35 18.55C45.7167 20.05 45.4 21.75 45.4 23.65C45.4 25.4833 45.7167 27.1667 46.35 28.7C46.9833 30.2 47.9333 31.4 49.2 32.3C50.5 33.1667 52.1167 33.6 54.05 33.6C55.55 33.6 56.85 33.3333 57.95 32.8C59.05 32.2667 59.9333 31.55 60.6 30.65C61.2667 29.75 61.6667 28.7333 61.8 27.6H66.4C66.3 29.7 65.6833 31.5167 64.55 33.05C63.45 34.5833 61.9833 35.7833 60.15 36.65C58.35 37.4833 56.3167 37.9 54.05 37.9ZM85.8723 37.9C83.5723 37.9 81.5723 37.5 79.8723 36.7C78.2056 35.9 76.8223 34.8333 75.7223 33.5C74.6223 32.1333 73.7889 30.6333 73.2223 29C72.6889 27.3667 72.4223 25.7333 72.4223 24.1V23.2C72.4223 21.5 72.6889 19.8333 73.2223 18.2C73.7889 16.5667 74.6223 15.1 75.7223 13.8C76.8556 12.4667 78.2556 11.4 79.9223 10.6C81.5889 9.8 83.5389 9.4 85.7723 9.4C88.0056 9.4 90.0056 9.81666 91.7723 10.65C93.5723 11.4833 95.0056 12.6667 96.0723 14.2C97.1723 15.7 97.7889 17.4833 97.9223 19.55H93.3223C93.0889 17.8833 92.3223 16.5 91.0223 15.4C89.7223 14.2667 87.9723 13.7 85.7723 13.7C83.8723 13.7 82.2889 14.1333 81.0223 15C79.7556 15.8667 78.8056 17.05 78.1723 18.55C77.5389 20.05 77.2223 21.75 77.2223 23.65C77.2223 25.4833 77.5389 27.1667 78.1723 28.7C78.8056 30.2 79.7556 31.4 81.0223 32.3C82.3223 33.1667 83.9389 33.6 85.8723 33.6C87.3723 33.6 88.6723 33.3333 89.7723 32.8C90.8723 32.2667 91.7556 31.55 92.4223 30.65C93.0889 29.75 93.4889 28.7333 93.6223 27.6H98.2223C98.1223 29.7 97.5056 31.5167 96.3723 33.05C95.2723 34.5833 93.8056 35.7833 91.9723 36.65C90.1723 37.4833 88.1389 37.9 85.8723 37.9ZM117.595 37.9C115.261 37.9 113.245 37.5 111.545 36.7C109.845 35.9 108.461 34.85 107.395 33.55C106.328 32.2167 105.528 30.7333 104.995 29.1C104.495 27.4667 104.245 25.8 104.245 24.1V23.2C104.245 21.4667 104.495 19.7833 104.995 18.15C105.528 16.5167 106.328 15.05 107.395 13.75C108.461 12.4167 109.811 11.3667 111.445 10.6C113.111 9.8 115.061 9.4 117.295 9.4C120.195 9.4 122.578 10.0333 124.445 11.3C126.345 12.5333 127.745 14.1333 128.645 16.1C129.578 18.0667 130.045 20.1667 130.045 22.4V24.55H106.345V20.95H126.545L125.445 22.9C125.445 21 125.145 19.3667 124.545 18C123.945 16.6 123.045 15.5167 121.845 14.75C120.645 13.9833 119.128 13.6 117.295 13.6C115.395 13.6 113.811 14.0333 112.545 14.9C111.311 15.7667 110.378 16.95 109.745 18.45C109.145 19.95 108.845 21.6833 108.845 23.65C108.845 25.55 109.145 27.2667 109.745 28.8C110.378 30.3 111.345 31.5 112.645 32.4C113.945 33.2667 115.595 33.7 117.595 33.7C119.695 33.7 121.395 33.2333 122.695 32.3C124.028 31.3667 124.828 30.2833 125.095 29.05H129.595C129.228 30.8833 128.495 32.4667 127.395 33.8C126.295 35.1333 124.911 36.15 123.245 36.85C121.578 37.55 119.695 37.9 117.595 37.9ZM147.11 37.8C143.61 37.8 140.893 37.05 138.96 35.55C137.06 34.05 136.076 32 136.01 29.4H140.51C140.576 30.4333 141.093 31.4167 142.06 32.35C143.06 33.25 144.743 33.7 147.11 33.7C149.243 33.7 150.876 33.2833 152.01 32.45C153.143 31.5833 153.71 30.5333 153.71 29.3C153.71 28.2 153.293 27.35 152.46 26.75C151.626 26.1167 150.276 25.7 148.41 25.5L145.51 25.2C142.976 24.9333 140.91 24.1833 139.31 22.95C137.71 21.6833 136.91 19.9167 136.91 17.65C136.91 15.95 137.343 14.5 138.21 13.3C139.076 12.0667 140.276 11.1333 141.81 10.5C143.343 9.83333 145.11 9.5 147.11 9.5C150.11 9.5 152.543 10.1667 154.41 11.5C156.276 12.8333 157.243 14.8167 157.31 17.45H152.81C152.776 16.3833 152.276 15.4833 151.31 14.75C150.376 13.9833 148.976 13.6 147.11 13.6C145.243 13.6 143.826 13.9833 142.86 14.75C141.893 15.5167 141.41 16.4833 141.41 17.65C141.41 18.65 141.743 19.45 142.41 20.05C143.11 20.65 144.243 21.0333 145.81 21.2L148.71 21.5C151.576 21.8 153.876 22.6 155.61 23.9C157.343 25.1667 158.21 26.9667 158.21 29.3C158.21 30.9667 157.726 32.45 156.76 33.75C155.826 35.0167 154.526 36.0167 152.86 36.75C151.193 37.45 149.276 37.8 147.11 37.8ZM175.416 37.8C171.916 37.8 169.2 37.05 167.266 35.55C165.366 34.05 164.383 32 164.316 29.4H168.816C168.883 30.4333 169.4 31.4167 170.366 32.35C171.366 33.25 173.05 33.7 175.416 33.7C177.55 33.7 179.183 33.2833 180.316 32.45C181.45 31.5833 182.016 30.5333 182.016 29.3C182.016 28.2 181.6 27.35 180.766 26.75C179.933 26.1167 178.583 25.7 176.716 25.5L173.816 25.2C171.283 24.9333 169.216 24.1833 167.616 22.95C166.016 21.6833 165.216 19.9167 165.216 17.65C165.216 15.95 165.65 14.5 166.516 13.3C167.383 12.0667 168.583 11.1333 170.116 10.5C171.65 9.83333 173.416 9.5 175.416 9.5C178.416 9.5 180.85 10.1667 182.716 11.5C184.583 12.8333 185.55 14.8167 185.616 17.45H181.116C181.083 16.3833 180.583 15.4833 179.616 14.75C178.683 13.9833 177.283 13.6 175.416 13.6C173.55 13.6 172.133 13.9833 171.166 14.75C170.2 15.5167 169.716 16.4833 169.716 17.65C169.716 18.65 170.05 19.45 170.716 20.05C171.416 20.65 172.55 21.0333 174.116 21.2L177.016 21.5C179.883 21.8 182.183 22.6 183.916 23.9C185.65 25.1667 186.516 26.9667 186.516 29.3C186.516 30.9667 186.033 32.45 185.066 33.75C184.133 35.0167 182.833 36.0167 181.166 36.75C179.5 37.45 177.583 37.8 175.416 37.8ZM218.25 37.3C216.25 37.3 214.517 37.0167 213.05 36.45C211.617 35.8833 210.5 34.9167 209.7 33.55C208.933 32.15 208.55 30.2667 208.55 27.9V2.2H213.15V28.5C213.15 29.9333 213.533 31.05 214.3 31.85C215.1 32.6167 216.217 33 217.65 33H222.35V37.3H218.25ZM203.95 13.9V10.3H222.35V13.9H203.95ZM230.639 37V0.499999H235.439V22.3H234.239C234.239 19.6667 234.572 17.4 235.239 15.5C235.939 13.5667 237.006 12.0833 238.439 11.05C239.872 10.0167 241.706 9.5 243.939 9.5H244.139C247.339 9.5 249.756 10.5667 251.389 12.7C253.022 14.8 253.839 17.8167 253.839 21.75V37H249.039V20.75C249.039 18.5833 248.422 16.9 247.189 15.7C245.989 14.5 244.422 13.9 242.489 13.9C240.356 13.9 238.639 14.6167 237.339 16.05C236.072 17.45 235.439 19.3 235.439 21.6V37H230.639ZM275.471 37.9C273.138 37.9 271.121 37.5 269.421 36.7C267.721 35.9 266.338 34.85 265.271 33.55C264.205 32.2167 263.405 30.7333 262.871 29.1C262.371 27.4667 262.121 25.8 262.121 24.1V23.2C262.121 21.4667 262.371 19.7833 262.871 18.15C263.405 16.5167 264.205 15.05 265.271 13.75C266.338 12.4167 267.688 11.3667 269.321 10.6C270.988 9.8 272.938 9.4 275.171 9.4C278.071 9.4 280.455 10.0333 282.321 11.3C284.221 12.5333 285.621 14.1333 286.521 16.1C287.455 18.0667 287.921 20.1667 287.921 22.4V24.55H264.221V20.95H284.421L283.321 22.9C283.321 21 283.021 19.3667 282.421 18C281.821 16.6 280.921 15.5167 279.721 14.75C278.521 13.9833 277.005 13.6 275.171 13.6C273.271 13.6 271.688 14.0333 270.421 14.9C269.188 15.7667 268.255 16.95 267.621 18.45C267.021 19.95 266.721 21.6833 266.721 23.65C266.721 25.55 267.021 27.2667 267.621 28.8C268.255 30.3 269.221 31.5 270.521 32.4C271.821 33.2667 273.471 33.7 275.471 33.7C277.571 33.7 279.271 33.2333 280.571 32.3C281.905 31.3667 282.705 30.2833 282.971 29.05H287.471C287.105 30.8833 286.371 32.4667 285.271 33.8C284.171 35.1333 282.788 36.15 281.121 36.85C279.455 37.55 277.571 37.9 275.471 37.9ZM313.714 37.2V32.7H322.814C325.014 32.7 326.964 32.35 328.664 31.65C330.397 30.9167 331.864 29.9167 333.064 28.65C334.297 27.3833 335.23 25.9 335.864 24.2C336.497 22.5 336.814 20.6667 336.814 18.7C336.814 16.6333 336.497 14.7667 335.864 13.1C335.23 11.4 334.297 9.93333 333.064 8.7C331.864 7.43333 330.397 6.46667 328.664 5.8C326.964 5.13333 325.014 4.8 322.814 4.8H313.714V0.299999H322.314C325.614 0.299999 328.48 0.816666 330.914 1.85C333.347 2.85 335.364 4.21666 336.964 5.95C338.597 7.65 339.814 9.56666 340.614 11.7C341.414 13.8 341.814 15.95 341.814 18.15V19.25C341.814 21.3833 341.414 23.5167 340.614 25.65C339.814 27.7833 338.597 29.7167 336.964 31.45C335.364 33.1833 333.347 34.5833 330.914 35.65C328.48 36.6833 325.614 37.2 322.314 37.2H313.714ZM309.814 37.2V0.299999H314.714V37.2H309.814ZM366.314 37V29H365.514V19.75C365.514 17.9167 365.031 16.5333 364.064 15.6C363.131 14.6667 361.748 14.2 359.914 14.2C358.881 14.2 357.814 14.2167 356.714 14.25C355.614 14.2833 354.564 14.3167 353.564 14.35C352.564 14.3833 351.698 14.4333 350.964 14.5V10.3C351.698 10.2333 352.464 10.1833 353.264 10.15C354.098 10.0833 354.948 10.05 355.814 10.05C356.681 10.0167 357.514 10 358.314 10C361.048 10 363.281 10.3333 365.014 11C366.748 11.6333 368.031 12.6833 368.864 14.15C369.698 15.6167 370.114 17.6 370.114 20.1V37H366.314ZM357.564 37.7C355.564 37.7 353.831 37.3667 352.364 36.7C350.931 36 349.814 35 349.014 33.7C348.248 32.4 347.864 30.8333 347.864 29C347.864 27.1 348.281 25.5167 349.114 24.25C349.981 22.9833 351.231 22.0333 352.864 21.4C354.498 20.7333 356.464 20.4 358.764 20.4H366.014V24H358.564C356.631 24 355.148 24.4667 354.114 25.4C353.081 26.3333 352.564 27.5333 352.564 29C352.564 30.4667 353.081 31.65 354.114 32.55C355.148 33.45 356.631 33.9 358.564 33.9C359.698 33.9 360.781 33.7 361.814 33.3C362.848 32.8667 363.698 32.1667 364.364 31.2C365.064 30.2 365.448 28.8333 365.514 27.1L366.814 29C366.648 30.9 366.181 32.5 365.414 33.8C364.681 35.0667 363.648 36.0333 362.314 36.7C361.014 37.3667 359.431 37.7 357.564 37.7ZM390.824 37.3C388.824 37.3 387.091 37.0167 385.624 36.45C384.191 35.8833 383.074 34.9167 382.274 33.55C381.508 32.15 381.124 30.2667 381.124 27.9V2.2H385.724V28.5C385.724 29.9333 386.108 31.05 386.874 31.85C387.674 32.6167 388.791 33 390.224 33H394.924V37.3H390.824ZM376.524 13.9V10.3H394.924V13.9H376.524ZM419.266 37V29H418.466V19.75C418.466 17.9167 417.982 16.5333 417.016 15.6C416.082 14.6667 414.699 14.2 412.866 14.2C411.832 14.2 410.766 14.2167 409.666 14.25C408.566 14.2833 407.516 14.3167 406.516 14.35C405.516 14.3833 404.649 14.4333 403.916 14.5V10.3C404.649 10.2333 405.416 10.1833 406.216 10.15C407.049 10.0833 407.899 10.05 408.766 10.05C409.632 10.0167 410.466 10 411.266 10C413.999 10 416.232 10.3333 417.966 11C419.699 11.6333 420.982 12.6833 421.816 14.15C422.649 15.6167 423.066 17.6 423.066 20.1V37H419.266ZM410.516 37.7C408.516 37.7 406.782 37.3667 405.316 36.7C403.882 36 402.766 35 401.966 33.7C401.199 32.4 400.816 30.8333 400.816 29C400.816 27.1 401.232 25.5167 402.066 24.25C402.932 22.9833 404.182 22.0333 405.816 21.4C407.449 20.7333 409.416 20.4 411.716 20.4H418.966V24H411.516C409.582 24 408.099 24.4667 407.066 25.4C406.032 26.3333 405.516 27.5333 405.516 29C405.516 30.4667 406.032 31.65 407.066 32.55C408.099 33.45 409.582 33.9 411.516 33.9C412.649 33.9 413.732 33.7 414.766 33.3C415.799 32.8667 416.649 32.1667 417.316 31.2C418.016 30.2 418.399 28.8333 418.466 27.1L419.766 29C419.599 30.9 419.132 32.5 418.366 33.8C417.632 35.0667 416.599 36.0333 415.266 36.7C413.966 37.3667 412.382 37.7 410.516 37.7Z" fill="#2D3047"/>
</svg>
