<svg width="479" height="104" viewBox="0 0 479 104" fill="none" xmlns="http://www.w3.org/2000/svg">
<path d="M104.033 65L114.553 35.8H121.193L132.033 65H127.993L118.193 38.36L120.113 39.32H115.393L117.433 38.36L107.953 65H104.033ZM110.313 56.28L111.633 52.76H124.233L125.553 56.28H110.313ZM146.953 65.72C145.113 65.72 143.513 65.4 142.153 64.76C140.82 64.12 139.713 63.2667 138.833 62.2C137.953 61.1067 137.286 59.9067 136.833 58.6C136.406 57.2933 136.193 55.9867 136.193 54.68V53.96C136.193 52.6 136.406 51.2667 136.833 49.96C137.286 48.6533 137.953 47.48 138.833 46.44C139.74 45.3733 140.86 44.52 142.193 43.88C143.526 43.24 145.086 42.92 146.873 42.92C148.66 42.92 150.26 43.2533 151.673 43.92C153.113 44.5867 154.26 45.5333 155.113 46.76C155.993 47.96 156.486 49.3867 156.593 51.04H152.913C152.726 49.7067 152.113 48.6 151.073 47.72C150.033 46.8133 148.633 46.36 146.873 46.36C145.353 46.36 144.086 46.7067 143.073 47.4C142.06 48.0933 141.3 49.04 140.793 50.24C140.286 51.44 140.033 52.8 140.033 54.32C140.033 55.7867 140.286 57.1333 140.793 58.36C141.3 59.56 142.06 60.52 143.073 61.24C144.113 61.9333 145.406 62.28 146.953 62.28C148.153 62.28 149.193 62.0667 150.073 61.64C150.953 61.2133 151.66 60.64 152.193 59.92C152.726 59.2 153.046 58.3867 153.153 57.48H156.833C156.753 59.16 156.26 60.6133 155.353 61.84C154.473 63.0667 153.3 64.0267 151.833 64.72C150.393 65.3867 148.766 65.72 146.953 65.72ZM172.411 65.72C170.571 65.72 168.971 65.4 167.611 64.76C166.278 64.12 165.171 63.2667 164.291 62.2C163.411 61.1067 162.744 59.9067 162.291 58.6C161.864 57.2933 161.651 55.9867 161.651 54.68V53.96C161.651 52.6 161.864 51.2667 162.291 49.96C162.744 48.6533 163.411 47.48 164.291 46.44C165.198 45.3733 166.318 44.52 167.651 43.88C168.984 43.24 170.544 42.92 172.331 42.92C174.118 42.92 175.718 43.2533 177.131 43.92C178.571 44.5867 179.718 45.5333 180.571 46.76C181.451 47.96 181.944 49.3867 182.051 51.04H178.371C178.184 49.7067 177.571 48.6 176.531 47.72C175.491 46.8133 174.091 46.36 172.331 46.36C170.811 46.36 169.544 46.7067 168.531 47.4C167.518 48.0933 166.758 49.04 166.251 50.24C165.744 51.44 165.491 52.8 165.491 54.32C165.491 55.7867 165.744 57.1333 166.251 58.36C166.758 59.56 167.518 60.52 168.531 61.24C169.571 61.9333 170.864 62.28 172.411 62.28C173.611 62.28 174.651 62.0667 175.531 61.64C176.411 61.2133 177.118 60.64 177.651 59.92C178.184 59.2 178.504 58.3867 178.611 57.48H182.291C182.211 59.16 181.718 60.6133 180.811 61.84C179.931 63.0667 178.758 64.0267 177.291 64.72C175.851 65.3867 174.224 65.72 172.411 65.72ZM197.789 65.72C195.922 65.72 194.309 65.4 192.949 64.76C191.589 64.12 190.482 63.28 189.629 62.24C188.775 61.1733 188.135 59.9867 187.709 58.68C187.309 57.3733 187.109 56.04 187.109 54.68V53.96C187.109 52.5733 187.309 51.2267 187.709 49.92C188.135 48.6133 188.775 47.44 189.629 46.4C190.482 45.3333 191.562 44.4933 192.869 43.88C194.202 43.24 195.762 42.92 197.549 42.92C199.869 42.92 201.775 43.4267 203.269 44.44C204.789 45.4267 205.909 46.7067 206.629 48.28C207.375 49.8533 207.749 51.5333 207.749 53.32V55.04H188.789V52.16H204.949L204.069 53.72C204.069 52.2 203.829 50.8933 203.349 49.8C202.869 48.68 202.149 47.8133 201.189 47.2C200.229 46.5867 199.015 46.28 197.549 46.28C196.029 46.28 194.762 46.6267 193.749 47.32C192.762 48.0133 192.015 48.96 191.509 50.16C191.029 51.36 190.789 52.7467 190.789 54.32C190.789 55.84 191.029 57.2133 191.509 58.44C192.015 59.64 192.789 60.6 193.829 61.32C194.869 62.0133 196.189 62.36 197.789 62.36C199.469 62.36 200.829 61.9867 201.869 61.24C202.935 60.4933 203.575 59.6267 203.789 58.64H207.389C207.095 60.1067 206.509 61.3733 205.629 62.44C204.749 63.5067 203.642 64.32 202.309 64.88C200.975 65.44 199.469 65.72 197.789 65.72ZM221.401 65.64C218.601 65.64 216.428 65.04 214.881 63.84C213.361 62.64 212.574 61 212.521 58.92H216.121C216.174 59.7467 216.588 60.5333 217.361 61.28C218.161 62 219.508 62.36 221.401 62.36C223.108 62.36 224.414 62.0267 225.321 61.36C226.228 60.6667 226.681 59.8267 226.681 58.84C226.681 57.96 226.348 57.28 225.681 56.8C225.014 56.2933 223.934 55.96 222.441 55.8L220.121 55.56C218.094 55.3467 216.441 54.7467 215.161 53.76C213.881 52.7467 213.241 51.3333 213.241 49.52C213.241 48.16 213.588 47 214.281 46.04C214.974 45.0533 215.934 44.3067 217.161 43.8C218.388 43.2667 219.801 43 221.401 43C223.801 43 225.748 43.5333 227.241 44.6C228.734 45.6667 229.508 47.2533 229.561 49.36H225.961C225.934 48.5067 225.534 47.7867 224.761 47.2C224.014 46.5867 222.894 46.28 221.401 46.28C219.908 46.28 218.774 46.5867 218.001 47.2C217.228 47.8133 216.841 48.5867 216.841 49.52C216.841 50.32 217.108 50.96 217.641 51.44C218.201 51.92 219.108 52.2267 220.361 52.36L222.681 52.6C224.974 52.84 226.814 53.48 228.201 54.52C229.588 55.5333 230.281 56.9733 230.281 58.84C230.281 60.1733 229.894 61.36 229.121 62.4C228.374 63.4133 227.334 64.2133 226.001 64.8C224.668 65.36 223.134 65.64 221.401 65.64ZM244.046 65.64C241.246 65.64 239.073 65.04 237.526 63.84C236.006 62.64 235.22 61 235.166 58.92H238.766C238.82 59.7467 239.233 60.5333 240.006 61.28C240.806 62 242.153 62.36 244.046 62.36C245.753 62.36 247.06 62.0267 247.966 61.36C248.873 60.6667 249.326 59.8267 249.326 58.84C249.326 57.96 248.993 57.28 248.326 56.8C247.66 56.2933 246.58 55.96 245.086 55.8L242.766 55.56C240.74 55.3467 239.086 54.7467 237.806 53.76C236.526 52.7467 235.886 51.3333 235.886 49.52C235.886 48.16 236.233 47 236.926 46.04C237.62 45.0533 238.58 44.3067 239.806 43.8C241.033 43.2667 242.446 43 244.046 43C246.446 43 248.393 43.5333 249.886 44.6C251.38 45.6667 252.153 47.2533 252.206 49.36H248.606C248.58 48.5067 248.18 47.7867 247.406 47.2C246.66 46.5867 245.54 46.28 244.046 46.28C242.553 46.28 241.42 46.5867 240.646 47.2C239.873 47.8133 239.486 48.5867 239.486 49.52C239.486 50.32 239.753 50.96 240.286 51.44C240.846 51.92 241.753 52.2267 243.006 52.36L245.326 52.6C247.62 52.84 249.46 53.48 250.846 54.52C252.233 55.5333 252.926 56.9733 252.926 58.84C252.926 60.1733 252.54 61.36 251.766 62.4C251.02 63.4133 249.98 64.2133 248.646 64.8C247.313 65.36 245.78 65.64 244.046 65.64ZM278.313 65.24C276.713 65.24 275.326 65.0133 274.153 64.56C273.006 64.1067 272.113 63.3333 271.473 62.24C270.86 61.12 270.553 59.6133 270.553 57.72V37.16H274.233V58.2C274.233 59.3467 274.54 60.24 275.153 60.88C275.793 61.4933 276.686 61.8 277.833 61.8H281.593V65.24H278.313ZM266.873 46.52V43.64H281.593V46.52H266.873ZM288.224 65V35.8H292.064V53.24H291.104C291.104 51.1333 291.371 49.32 291.904 47.8C292.464 46.2533 293.318 45.0667 294.464 44.24C295.611 43.4133 297.078 43 298.864 43H299.024C301.584 43 303.518 43.8533 304.824 45.56C306.131 47.24 306.784 49.6533 306.784 52.8V65H302.944V52C302.944 50.2667 302.451 48.92 301.464 47.96C300.504 47 299.251 46.52 297.704 46.52C295.998 46.52 294.624 47.0933 293.584 48.24C292.571 49.36 292.064 50.84 292.064 52.68V65H288.224ZM324.09 65.72C322.224 65.72 320.61 65.4 319.25 64.76C317.89 64.12 316.784 63.28 315.93 62.24C315.077 61.1733 314.437 59.9867 314.01 58.68C313.61 57.3733 313.41 56.04 313.41 54.68V53.96C313.41 52.5733 313.61 51.2267 314.01 49.92C314.437 48.6133 315.077 47.44 315.93 46.4C316.784 45.3333 317.864 44.4933 319.17 43.88C320.504 43.24 322.064 42.92 323.85 42.92C326.17 42.92 328.077 43.4267 329.57 44.44C331.09 45.4267 332.21 46.7067 332.93 48.28C333.677 49.8533 334.05 51.5333 334.05 53.32V55.04H315.09V52.16H331.25L330.37 53.72C330.37 52.2 330.13 50.8933 329.65 49.8C329.17 48.68 328.45 47.8133 327.49 47.2C326.53 46.5867 325.317 46.28 323.85 46.28C322.33 46.28 321.064 46.6267 320.05 47.32C319.064 48.0133 318.317 48.96 317.81 50.16C317.33 51.36 317.09 52.7467 317.09 54.32C317.09 55.84 317.33 57.2133 317.81 58.44C318.317 59.64 319.09 60.6 320.13 61.32C321.17 62.0133 322.49 62.36 324.09 62.36C325.77 62.36 327.13 61.9867 328.17 61.24C329.237 60.4933 329.877 59.6267 330.09 58.64H333.69C333.397 60.1067 332.81 61.3733 331.93 62.44C331.05 63.5067 329.944 64.32 328.61 64.88C327.277 65.44 325.77 65.72 324.09 65.72ZM354.684 65.16V61.56H361.964C363.724 61.56 365.284 61.28 366.644 60.72C368.031 60.1333 369.204 59.3333 370.164 58.32C371.151 57.3067 371.897 56.12 372.404 54.76C372.911 53.4 373.164 51.9333 373.164 50.36C373.164 48.7067 372.911 47.2133 372.404 45.88C371.897 44.52 371.151 43.3467 370.164 42.36C369.204 41.3467 368.031 40.5733 366.644 40.04C365.284 39.5067 363.724 39.24 361.964 39.24H354.684V35.64H361.564C364.204 35.64 366.497 36.0533 368.444 36.88C370.391 37.68 372.004 38.7733 373.284 40.16C374.591 41.52 375.564 43.0533 376.204 44.76C376.844 46.44 377.164 48.16 377.164 49.92V50.8C377.164 52.5067 376.844 54.2133 376.204 55.92C375.564 57.6267 374.591 59.1733 373.284 60.56C372.004 61.9467 370.391 63.0667 368.444 63.92C366.497 64.7467 364.204 65.16 361.564 65.16H354.684ZM351.564 65.16V35.64H355.484V65.16H351.564ZM396.765 65V58.6H396.125V51.2C396.125 49.7333 395.738 48.6267 394.965 47.88C394.218 47.1333 393.111 46.76 391.645 46.76C390.818 46.76 389.965 46.7733 389.085 46.8C388.205 46.8267 387.365 46.8533 386.565 46.88C385.765 46.9067 385.071 46.9467 384.485 47V43.64C385.071 43.5867 385.685 43.5467 386.325 43.52C386.991 43.4667 387.671 43.44 388.365 43.44C389.058 43.4133 389.725 43.4 390.365 43.4C392.551 43.4 394.338 43.6667 395.725 44.2C397.111 44.7067 398.138 45.5467 398.805 46.72C399.471 47.8933 399.805 49.48 399.805 51.48V65H396.765ZM389.765 65.56C388.165 65.56 386.778 65.2933 385.605 64.76C384.458 64.2 383.565 63.4 382.925 62.36C382.311 61.32 382.005 60.0667 382.005 58.6C382.005 57.08 382.338 55.8133 383.005 54.8C383.698 53.7867 384.698 53.0267 386.005 52.52C387.311 51.9867 388.885 51.72 390.725 51.72H396.525V54.6H390.565C389.018 54.6 387.831 54.9733 387.005 55.72C386.178 56.4667 385.765 57.4267 385.765 58.6C385.765 59.7733 386.178 60.72 387.005 61.44C387.831 62.16 389.018 62.52 390.565 62.52C391.471 62.52 392.338 62.36 393.165 62.04C393.991 61.6933 394.671 61.1333 395.205 60.36C395.765 59.56 396.071 58.4667 396.125 57.08L397.165 58.6C397.031 60.12 396.658 61.4 396.045 62.44C395.458 63.4533 394.631 64.2267 393.565 64.76C392.525 65.2933 391.258 65.56 389.765 65.56ZM416.372 65.24C414.772 65.24 413.386 65.0133 412.212 64.56C411.066 64.1067 410.172 63.3333 409.532 62.24C408.919 61.12 408.612 59.6133 408.612 57.72V37.16H412.292V58.2C412.292 59.3467 412.599 60.24 413.212 60.88C413.852 61.4933 414.746 61.8 415.892 61.8H419.652V65.24H416.372ZM404.932 46.52V43.64H419.652V46.52H404.932ZM439.126 65V58.6H438.486V51.2C438.486 49.7333 438.099 48.6267 437.326 47.88C436.579 47.1333 435.472 46.76 434.006 46.76C433.179 46.76 432.326 46.7733 431.446 46.8C430.566 46.8267 429.726 46.8533 428.926 46.88C428.126 46.9067 427.432 46.9467 426.846 47V43.64C427.432 43.5867 428.046 43.5467 428.686 43.52C429.352 43.4667 430.032 43.44 430.726 43.44C431.419 43.4133 432.086 43.4 432.726 43.4C434.912 43.4 436.699 43.6667 438.086 44.2C439.472 44.7067 440.499 45.5467 441.166 46.72C441.832 47.8933 442.166 49.48 442.166 51.48V65H439.126ZM432.126 65.56C430.526 65.56 429.139 65.2933 427.966 64.76C426.819 64.2 425.926 63.4 425.286 62.36C424.672 61.32 424.366 60.0667 424.366 58.6C424.366 57.08 424.699 55.8133 425.366 54.8C426.059 53.7867 427.059 53.0267 428.366 52.52C429.672 51.9867 431.246 51.72 433.086 51.72H438.886V54.6H432.926C431.379 54.6 430.192 54.9733 429.366 55.72C428.539 56.4667 428.126 57.4267 428.126 58.6C428.126 59.7733 428.539 60.72 429.366 61.44C430.192 62.16 431.379 62.52 432.926 62.52C433.832 62.52 434.699 62.36 435.526 62.04C436.352 61.6933 437.032 61.1333 437.566 60.36C438.126 59.56 438.432 58.4667 438.486 57.08L439.526 58.6C439.392 60.12 439.019 61.4 438.406 62.44C437.819 63.4533 436.992 64.2267 435.926 64.76C434.886 65.2933 433.619 65.56 432.126 65.56Z" fill="#2D3047"/>
<path d="M31 30.5455C31 28.0351 33.0351 26 35.5455 26H60.2045C62.7149 26 64.75 28.0351 64.75 30.5455V30.5455C64.75 33.0559 62.7149 35.091 60.2045 35.091H35.5455C33.0351 35.091 31 33.0559 31 30.5455V30.5455Z" fill="#2D3047"/>
<path d="M31 71.4545C31 68.9441 33.0351 66.909 35.5455 66.909H60.2045C62.7149 66.909 64.75 68.9441 64.75 71.4545V71.4545C64.75 73.9649 62.7149 76 60.2045 76H35.5455C33.0351 76 31 73.9649 31 71.4545V71.4545Z" fill="#2D3047"/>
<path d="M31 44.1818C31 41.6714 33.0351 39.6363 35.5455 39.6363H71.4545C73.9649 39.6363 76 41.6714 76 44.1818V44.1818C76 46.6922 73.9649 48.7273 71.4545 48.7273H35.5455C33.0351 48.7273 31 46.6922 31 44.1818V44.1818Z" fill="#2D3047"/>
<path d="M31 57.8182C31 55.3077 33.0351 53.2727 35.5455 53.2727H71.4545C73.9649 53.2727 76 55.3077 76 57.8182V57.8182C76 60.3286 73.9649 62.3636 71.4545 62.3636H35.5455C33.0351 62.3636 31 60.3286 31 57.8182V57.8182Z" fill="#2D3047"/>
<path d="M0 40C0 17.9086 17.9086 0 40 0H479V64C479 86.0914 461.091 104 439 104H0V40Z" stroke="black"/>
</svg>
