<svg width="323" height="279" viewBox="0 0 323 279" fill="none" xmlns="http://www.w3.org/2000/svg">
<circle cx="161.5" cy="114.5" r="75.5" fill="#2D3047"/>
<path d="M118 76.4546C118 71.7853 121.785 68 126.455 68H179.295C183.965 68 187.75 71.7853 187.75 76.4546C187.75 81.124 183.965 84.9092 179.295 84.9092H126.455C121.785 84.9092 118 81.124 118 76.4546Z" fill="#F2F2F2"/>
<path d="M118 152.545C118 147.876 121.785 144.091 126.455 144.091H179.295C183.965 144.091 187.75 147.876 187.75 152.545C187.75 157.215 183.965 161 179.295 161H126.455C121.785 161 118 157.215 118 152.545Z" fill="#F2F2F2"/>
<path d="M118 101.818C118 97.1488 121.785 93.3635 126.455 93.3635H202.545C207.215 93.3635 211 97.1488 211 101.818C211 106.487 207.215 110.273 202.545 110.273H126.455C121.785 110.273 118 106.487 118 101.818Z" fill="#F2F2F2"/>
<path d="M118 127.182C118 122.512 121.785 118.727 126.455 118.727H202.545C207.215 118.727 211 122.512 211 127.182C211 131.851 207.215 135.636 202.545 135.636H126.455C121.785 135.636 118 131.851 118 127.182Z" fill="#F2F2F2"/>
<path d="M49.0286 106.182L74.8882 114.478L75.0937 120.284L49.8952 130.667L49.7702 127.134L72.7623 117.74L71.9822 119.448L71.8361 115.321L72.7388 117.075L49.1499 109.61L49.0286 106.182ZM56.8482 111.404L59.9671 112.449L60.3571 123.467L57.3199 124.73L56.8482 111.404Z" fill="black"/>
<path d="M54.0806 148.942C53.5959 147.407 53.4414 145.987 53.6172 144.684C53.8 143.403 54.2205 142.255 54.8787 141.239C55.5592 140.217 56.3849 139.345 57.3557 138.622C58.3336 137.922 59.3677 137.4 60.458 137.056L61.0588 136.866C62.1936 136.508 63.3623 136.334 64.565 136.346C65.7747 136.38 66.9294 136.628 68.029 137.088C69.1578 137.563 70.1649 138.273 71.0501 139.217C71.9354 140.161 72.6133 141.378 73.084 142.869C73.5546 144.36 73.698 145.783 73.514 147.138C73.337 148.515 72.8492 149.721 72.0504 150.756C71.281 151.807 70.2205 152.594 68.869 153.119L67.8997 150.048C68.963 149.541 69.7249 148.738 70.1852 147.638C70.6678 146.532 70.6772 145.244 70.2136 143.775C69.8132 142.507 69.1903 141.541 68.3448 140.879C67.4994 140.216 66.5093 139.831 65.3745 139.724C64.2398 139.618 63.0382 139.764 61.7699 140.165C60.5461 140.551 59.4892 141.117 58.5991 141.863C57.7313 142.602 57.1305 143.489 56.7966 144.524C56.4921 145.575 56.5435 146.745 56.9509 148.036C57.267 149.037 57.719 149.849 58.3068 150.471C58.8947 151.092 59.5592 151.531 60.3005 151.786C61.0417 152.042 61.8047 152.095 62.5893 151.945L63.5587 155.015C62.1358 155.391 60.7932 155.362 59.5308 154.929C58.2755 154.518 57.1654 153.792 56.2005 152.75C55.2649 151.725 54.5582 150.455 54.0806 148.942Z" fill="black"/>
<path d="M65.7436 174.261C64.8975 172.892 64.4001 171.553 64.2512 170.247C64.1145 168.96 64.2409 167.744 64.6304 166.598C65.0397 165.44 65.6265 164.392 66.3908 163.454C67.1673 162.535 68.042 161.776 69.0147 161.175L69.5507 160.844C70.5632 160.219 71.6539 159.764 72.8228 159.481C74.004 159.218 75.184 159.175 76.3629 159.351C77.5738 159.536 78.7241 159.977 79.8136 160.676C80.9031 161.374 81.8587 162.388 82.6802 163.718C83.5017 165.048 83.9892 166.393 84.1428 167.751C84.3086 169.13 84.1311 170.419 83.6103 171.618C83.1216 172.825 82.2864 173.848 81.1046 174.688L79.4125 171.948C80.3193 171.196 80.8611 170.231 81.038 169.052C81.2348 167.861 80.9285 166.61 80.1193 165.3C79.4204 164.168 78.5799 163.385 77.5978 162.949C76.6157 162.514 75.5615 162.383 74.4352 162.558C73.3089 162.732 72.18 163.169 71.0484 163.868C69.9565 164.542 69.0705 165.35 68.3903 166.291C67.7299 167.22 67.3647 168.228 67.2946 169.313C67.2567 170.406 67.5933 171.528 68.3045 172.68C68.8562 173.573 69.4933 174.249 70.2155 174.708C70.9378 175.167 71.6895 175.43 72.4708 175.495C73.252 175.561 74.0046 175.426 74.7286 175.088L76.4207 177.828C75.1333 178.541 73.8245 178.842 72.4944 178.731C71.1766 178.64 69.9224 178.208 68.7319 177.435C67.5735 176.669 66.5774 175.611 65.7436 174.261Z" fill="black"/>
<path d="M83.2023 195.905C82.0297 194.768 81.2111 193.584 80.7467 192.354C80.2822 191.123 80.0987 189.922 80.1961 188.749C80.3098 187.559 80.6306 186.424 81.1585 185.343C81.7031 184.278 82.3896 183.319 83.218 182.465L83.6566 182.012C84.5013 181.141 85.4472 180.417 86.4944 179.84C87.5583 179.279 88.675 178.932 89.8445 178.798C91.0303 178.648 92.2204 178.778 93.4148 179.189C94.6422 179.599 95.8171 180.348 96.9394 181.437C98.3968 182.85 99.2858 184.329 99.6067 185.876C99.9605 187.421 99.8844 188.907 99.3783 190.334C98.889 191.778 98.1002 193.06 97.0119 194.183L95.9642 195.263L84.0541 183.714L85.8084 181.905L95.9596 191.748L94.4566 192.192C95.3825 191.237 96.0276 190.27 96.3921 189.291C96.7727 188.295 96.8484 187.312 96.6189 186.342C96.3895 185.372 95.8141 184.441 94.8928 183.547C93.9379 182.621 92.9311 182.068 91.8722 181.886C90.8301 181.72 89.7844 181.86 88.7352 182.305C87.7028 182.767 86.7073 183.492 85.749 184.48C84.8231 185.435 84.1374 186.444 83.6917 187.507C83.279 188.569 83.1801 189.643 83.3948 190.729C83.6258 191.798 84.2438 192.82 85.2489 193.794C86.3042 194.818 87.3859 195.412 88.494 195.576C89.6189 195.757 90.5488 195.602 91.2838 195.112L93.5453 197.305C92.4676 198.048 91.3275 198.486 90.125 198.62C88.9225 198.754 87.7319 198.591 86.5533 198.131C85.3746 197.67 84.2576 196.928 83.2023 195.905Z" fill="black"/>
<path d="M103.901 211.653C101.795 210.402 100.429 208.979 99.8019 207.385C99.195 205.802 99.3365 204.217 100.226 202.629L102.934 204.238C102.605 204.884 102.564 205.66 102.812 206.568C103.092 207.467 103.944 208.34 105.368 209.186C106.651 209.949 107.783 210.283 108.763 210.186C109.755 210.07 110.472 209.641 110.913 208.899C111.306 208.237 111.36 207.576 111.073 206.917C110.798 206.238 110.134 205.505 109.083 204.717L107.445 203.499C106.016 202.433 105.04 201.242 104.519 199.928C104.009 198.593 104.159 197.244 104.97 195.88C105.578 194.857 106.357 194.14 107.308 193.728C108.271 193.295 109.327 193.163 110.476 193.33C111.637 193.477 112.819 193.909 114.023 194.624C115.828 195.697 117.054 196.968 117.7 198.438C118.346 199.908 118.219 201.447 117.317 203.056L114.609 201.446C114.971 200.793 114.992 200.072 114.672 199.285C114.385 198.49 113.68 197.759 112.556 197.091C111.433 196.424 110.443 196.148 109.588 196.263C108.732 196.379 108.095 196.788 107.678 197.49C107.32 198.091 107.235 198.692 107.421 199.291C107.628 199.903 108.173 200.539 109.056 201.199L110.694 202.417C112.311 203.623 113.409 204.927 113.987 206.329C114.577 207.711 114.455 209.104 113.621 210.508C113.025 211.511 112.203 212.231 111.157 212.667C110.142 213.096 109.002 213.233 107.737 213.078C106.484 212.903 105.205 212.428 103.901 211.653Z" fill="black"/>
<path d="M126.448 221.929C124.119 221.167 122.475 220.077 121.515 218.658C120.578 217.246 120.37 215.669 120.892 213.924L123.886 214.904C123.705 215.606 123.835 216.373 124.274 217.204C124.744 218.02 125.766 218.686 127.34 219.202C128.76 219.666 129.937 219.744 130.872 219.437C131.815 219.107 132.421 218.532 132.689 217.711C132.929 216.979 132.836 216.323 132.413 215.743C131.996 215.14 131.189 214.569 129.99 214.029L128.126 213.198C126.499 212.469 125.287 211.52 124.491 210.352C123.703 209.161 123.555 207.811 124.049 206.303C124.419 205.172 125.023 204.302 125.86 203.692C126.705 203.06 127.707 202.701 128.865 202.613C130.03 202.503 131.278 202.666 132.609 203.102C134.605 203.755 136.078 204.728 137.03 206.021C137.981 207.315 138.193 208.845 137.664 210.611L134.67 209.632C134.88 208.915 134.743 208.207 134.26 207.509C133.806 206.795 132.958 206.236 131.716 205.829C130.474 205.423 129.448 205.37 128.638 205.669C127.828 205.969 127.296 206.507 127.042 207.283C126.825 207.948 126.872 208.553 127.185 209.097C127.52 209.649 128.191 210.151 129.197 210.602L131.061 211.433C132.903 212.257 134.259 213.29 135.129 214.532C136.006 215.752 136.191 217.138 135.683 218.691C135.32 219.8 134.676 220.681 133.749 221.336C132.853 221.975 131.77 222.357 130.502 222.482C129.24 222.585 127.889 222.401 126.448 221.929Z" fill="black"/>
<path d="M165.208 227.208C163.808 227.215 162.594 227.022 161.566 226.63C160.561 226.238 159.776 225.565 159.211 224.611C158.67 223.633 158.396 222.316 158.388 220.66L158.306 202.67L161.526 202.655L161.61 221.065C161.615 222.068 161.887 222.849 162.426 223.406C162.988 223.94 163.771 224.205 164.775 224.2L168.065 224.185L168.078 227.195L165.208 227.208ZM155.123 210.874L155.112 208.354L167.992 208.295L168.003 210.815L155.123 210.874Z" fill="black"/>
<path d="M178.628 226.037L172.938 201.129L176.214 200.381L179.612 215.258L178.793 215.445C178.383 213.648 178.257 212.049 178.415 210.648C178.592 209.22 179.088 208.041 179.905 207.113C180.723 206.184 181.893 205.546 183.417 205.198L183.554 205.166C185.737 204.668 187.553 205.019 189 206.22C190.442 207.398 191.47 209.33 192.083 212.014L194.46 222.421L191.184 223.169L188.651 212.08C188.314 210.601 187.63 209.549 186.602 208.922C185.596 208.29 184.433 208.125 183.114 208.426C181.658 208.759 180.598 209.515 179.934 210.696C179.288 211.849 179.144 213.21 179.503 214.78L181.904 225.289L178.628 226.037Z" fill="black"/>
<path d="M213.649 214.98C212.198 215.729 210.815 216.128 209.501 216.177C208.187 216.225 206.989 216.016 205.908 215.55C204.816 215.064 203.842 214.398 202.986 213.554C202.15 212.698 201.46 211.742 200.914 210.685L200.625 210.125C200.068 209.047 199.683 207.919 199.469 206.743C199.276 205.556 199.303 204.387 199.549 203.235C199.784 202.064 200.286 200.977 201.056 199.975C201.836 198.943 202.92 198.068 204.309 197.35C206.113 196.419 207.799 196.047 209.366 196.236C210.944 196.392 212.329 196.938 213.52 197.872C214.733 198.796 215.697 199.952 216.415 201.341L217.105 202.678L202.364 210.29L201.208 208.051L213.772 201.563L213.714 203.129C213.104 201.948 212.393 201.028 211.581 200.371C210.758 199.693 209.85 199.308 208.857 199.216C207.865 199.125 206.798 199.374 205.658 199.963C204.476 200.573 203.631 201.351 203.121 202.297C202.633 203.232 202.432 204.268 202.52 205.404C202.628 206.53 202.999 207.704 203.63 208.927C204.24 210.109 204.978 211.08 205.844 211.841C206.72 212.571 207.706 213.007 208.804 213.149C209.891 213.271 211.056 213.01 212.3 212.368C213.606 211.693 214.514 210.857 215.023 209.859C215.552 208.85 215.702 207.92 215.472 207.067L218.27 205.622C218.631 206.88 218.684 208.1 218.428 209.282C218.172 210.465 217.638 211.542 216.826 212.512C216.014 213.483 214.955 214.306 213.649 214.98Z" fill="black"/>
<path d="M242.817 192.932L240.407 190.903L244.511 186.031C245.503 184.853 246.195 183.651 246.587 182.425C246.976 181.166 247.102 179.93 246.965 178.717C246.843 177.485 246.469 176.316 245.845 175.211C245.22 174.105 244.381 173.109 243.328 172.222C242.222 171.29 241.08 170.618 239.902 170.205C238.706 169.778 237.5 169.616 236.283 169.72C235.064 169.792 233.885 170.141 232.746 170.769C231.623 171.378 230.565 172.272 229.573 173.45L225.47 178.322L223.06 176.293L226.938 171.688C228.426 169.921 229.996 168.62 231.646 167.783C233.279 166.931 234.92 166.467 236.57 166.392C238.216 166.284 239.791 166.497 241.294 167.031C242.779 167.55 244.111 168.305 245.288 169.297L245.877 169.793C247.02 170.755 247.981 171.931 248.763 173.321C249.544 174.712 250.031 176.235 250.222 177.891C250.429 179.529 250.269 181.24 249.743 183.024C249.199 184.793 248.183 186.561 246.695 188.328L242.817 192.932ZM241.058 195.02L221.302 178.381L223.511 175.757L243.268 192.397L241.058 195.02Z" fill="black"/>
<path d="M265.458 157.828L260.367 155.496L260.134 156.005L254.247 153.309C253.08 152.774 252.059 152.678 251.183 153.022C250.317 153.343 249.617 154.088 249.083 155.254C248.781 155.912 248.481 156.596 248.181 157.306C247.882 158.015 247.597 158.693 247.327 159.339C247.057 159.986 246.836 160.552 246.664 161.038L243.991 159.813C244.163 159.327 244.354 158.825 244.566 158.306C244.767 157.756 244.994 157.205 245.246 156.654C245.478 156.093 245.71 155.557 245.943 155.048C246.74 153.309 247.603 151.985 248.533 151.076C249.441 150.157 250.483 149.647 251.66 149.544C252.836 149.441 254.22 149.754 255.811 150.483L266.566 155.41L265.458 157.828ZM263.353 163.601C262.77 164.874 262.053 165.88 261.201 166.619C260.337 167.327 259.375 167.746 258.315 167.876C257.264 167.985 256.155 167.772 254.989 167.238C253.779 166.684 252.893 165.957 252.33 165.057C251.777 164.137 251.536 163.064 251.609 161.84C251.661 160.606 252.023 159.258 252.693 157.794L254.807 153.18L257.098 154.229L254.926 158.971C254.362 160.201 254.227 161.281 254.519 162.211C254.812 163.14 255.425 163.819 256.359 164.247C257.292 164.674 258.196 164.69 259.07 164.295C259.944 163.9 260.663 163.087 261.226 161.857C261.557 161.135 261.745 160.388 261.792 159.613C261.817 158.829 261.62 158.084 261.199 157.378C260.766 156.641 260.008 155.999 258.925 155.451L260.513 155.178C261.673 155.838 262.556 156.601 263.159 157.468C263.752 158.304 264.066 159.243 264.101 160.286C264.147 161.308 263.897 162.413 263.353 163.601Z" fill="black"/>
<path d="M272.164 136.204C271.861 137.571 271.404 138.712 270.794 139.628C270.189 140.522 269.359 141.138 268.303 141.477C267.23 141.788 265.885 141.764 264.268 141.405L246.707 137.501L247.405 134.358L265.377 138.352C266.356 138.57 267.177 138.478 267.84 138.075C268.486 137.645 268.917 136.94 269.135 135.961L269.849 132.749L272.787 133.402L272.164 136.204ZM254.003 142.422L251.543 141.875L254.337 129.302L256.797 129.848L254.003 142.422Z" fill="black"/>
<path d="M274.012 111.582L268.412 111.538L268.408 112.098L261.933 112.047C260.65 112.037 259.679 112.368 259.02 113.039C258.361 113.687 258.027 114.653 258.017 115.936C258.011 116.66 258.017 117.406 258.034 118.177C258.052 118.947 258.069 119.682 258.087 120.382C258.105 121.082 258.135 121.689 258.178 122.203L255.238 122.18C255.195 121.666 255.164 121.129 255.145 120.569C255.103 119.985 255.085 119.39 255.09 118.783C255.071 118.177 255.064 117.593 255.068 117.033C255.083 115.12 255.329 113.558 255.805 112.349C256.258 111.139 257 110.246 258.031 109.671C259.063 109.096 260.453 108.815 262.203 108.829L274.033 108.922L274.012 111.582ZM274.454 117.711C274.443 119.111 274.2 120.322 273.725 121.345C273.227 122.345 272.521 123.121 271.606 123.674C270.692 124.203 269.594 124.463 268.31 124.453C266.98 124.442 265.874 124.142 264.992 123.552C264.11 122.938 263.452 122.058 263.018 120.911C262.56 119.764 262.338 118.385 262.351 116.775L262.391 111.701L264.91 111.721L264.869 116.935C264.859 118.289 265.177 119.33 265.825 120.058C266.472 120.786 267.31 121.155 268.336 121.163C269.363 121.171 270.194 120.816 270.83 120.097C271.465 119.379 271.788 118.343 271.799 116.99C271.805 116.197 271.671 115.437 271.397 114.712C271.099 113.986 270.614 113.387 269.941 112.915C269.245 112.42 268.291 112.144 267.078 112.088L268.415 111.188C269.744 111.315 270.861 111.651 271.767 112.195C272.65 112.715 273.32 113.443 273.78 114.38C274.239 115.294 274.464 116.404 274.454 117.711Z" fill="black"/>
</svg>
