<svg width="300" height="209" viewBox="0 0 300 209" fill="none" xmlns="http://www.w3.org/2000/svg">
<path d="M103 30.4546C103 25.7853 106.785 22 111.455 22H165.939C170.609 22 174.394 25.7853 174.394 30.4546C174.394 35.124 170.609 38.9092 165.939 38.9092H111.455C106.785 38.9092 103 35.124 103 30.4546Z" fill="#2D3047"/>
<path d="M103 106.545C103 101.876 106.785 98.0908 111.455 98.0908H165.939C170.609 98.0908 174.394 101.876 174.394 106.545C174.394 111.215 170.609 115 165.939 115H111.455C106.785 115 103 111.215 103 106.545Z" fill="#2D3047"/>
<path d="M103 55.8181C103 51.1488 106.785 47.3635 111.455 47.3635H189.737C194.407 47.3635 198.192 51.1488 198.192 55.8181C198.192 60.4875 194.407 64.2728 189.737 64.2728H111.455C106.785 64.2728 103 60.4875 103 55.8181Z" fill="#2D3047"/>
<path d="M103 81.1818C103 76.5124 106.785 72.7272 111.455 72.7272H189.737C194.407 72.7272 198.192 76.5124 198.192 81.1818C198.192 85.8511 194.407 89.6364 189.737 89.6364H111.455C106.785 89.6364 103 85.8511 103 81.1818Z" fill="#2D3047"/>
<path d="M22.8574 159L30.7474 137.1H35.7274L43.8574 159H40.8274L33.4774 139.02L34.9174 139.74H31.3774L32.9074 139.02L25.7974 159H22.8574ZM27.5674 152.46L28.5574 149.82H38.0074L38.9974 152.46H27.5674ZM55.0474 159.54C53.6674 159.54 52.4674 159.3 51.4474 158.82C50.4474 158.34 49.6174 157.7 48.9574 156.9C48.2974 156.08 47.7974 155.18 47.4574 154.2C47.1374 153.22 46.9774 152.24 46.9774 151.26V150.72C46.9774 149.7 47.1374 148.7 47.4574 147.72C47.7974 146.74 48.2974 145.86 48.9574 145.08C49.6374 144.28 50.4774 143.64 51.4774 143.16C52.4774 142.68 53.6474 142.44 54.9874 142.44C56.3274 142.44 57.5274 142.69 58.5874 143.19C59.6674 143.69 60.5274 144.4 61.1674 145.32C61.8274 146.22 62.1974 147.29 62.2774 148.53H59.5174C59.3774 147.53 58.9174 146.7 58.1374 146.04C57.3574 145.36 56.3074 145.02 54.9874 145.02C53.8474 145.02 52.8974 145.28 52.1374 145.8C51.3774 146.32 50.8074 147.03 50.4274 147.93C50.0474 148.83 49.8574 149.85 49.8574 150.99C49.8574 152.09 50.0474 153.1 50.4274 154.02C50.8074 154.92 51.3774 155.64 52.1374 156.18C52.9174 156.7 53.8874 156.96 55.0474 156.96C55.9474 156.96 56.7274 156.8 57.3874 156.48C58.0474 156.16 58.5774 155.73 58.9774 155.19C59.3774 154.65 59.6174 154.04 59.6974 153.36H62.4574C62.3974 154.62 62.0274 155.71 61.3474 156.63C60.6874 157.55 59.8074 158.27 58.7074 158.79C57.6274 159.29 56.4074 159.54 55.0474 159.54ZM74.1407 159.54C72.7607 159.54 71.5607 159.3 70.5407 158.82C69.5407 158.34 68.7107 157.7 68.0507 156.9C67.3907 156.08 66.8907 155.18 66.5507 154.2C66.2307 153.22 66.0707 152.24 66.0707 151.26V150.72C66.0707 149.7 66.2307 148.7 66.5507 147.72C66.8907 146.74 67.3907 145.86 68.0507 145.08C68.7307 144.28 69.5707 143.64 70.5707 143.16C71.5707 142.68 72.7407 142.44 74.0807 142.44C75.4207 142.44 76.6207 142.69 77.6807 143.19C78.7607 143.69 79.6207 144.4 80.2607 145.32C80.9207 146.22 81.2907 147.29 81.3707 148.53H78.6107C78.4707 147.53 78.0107 146.7 77.2307 146.04C76.4507 145.36 75.4007 145.02 74.0807 145.02C72.9407 145.02 71.9907 145.28 71.2307 145.8C70.4707 146.32 69.9007 147.03 69.5207 147.93C69.1407 148.83 68.9507 149.85 68.9507 150.99C68.9507 152.09 69.1407 153.1 69.5207 154.02C69.9007 154.92 70.4707 155.64 71.2307 156.18C72.0107 156.7 72.9807 156.96 74.1407 156.96C75.0407 156.96 75.8207 156.8 76.4807 156.48C77.1407 156.16 77.6707 155.73 78.0707 155.19C78.4707 154.65 78.7107 154.04 78.7907 153.36H81.5507C81.4907 154.62 81.1207 155.71 80.4407 156.63C79.7807 157.55 78.9007 158.27 77.8007 158.79C76.7207 159.29 75.5007 159.54 74.1407 159.54ZM93.1741 159.54C91.7741 159.54 90.5641 159.3 89.5441 158.82C88.5241 158.34 87.6941 157.71 87.0541 156.93C86.4141 156.13 85.9341 155.24 85.6141 154.26C85.3141 153.28 85.1641 152.28 85.1641 151.26V150.72C85.1641 149.68 85.3141 148.67 85.6141 147.69C85.9341 146.71 86.4141 145.83 87.0541 145.05C87.6941 144.25 88.5041 143.62 89.4841 143.16C90.4841 142.68 91.6541 142.44 92.9941 142.44C94.7341 142.44 96.1641 142.82 97.2841 143.58C98.4241 144.32 99.2641 145.28 99.8041 146.46C100.364 147.64 100.644 148.9 100.644 150.24V151.53H86.4241V149.37H98.5441L97.8841 150.54C97.8841 149.4 97.7041 148.42 97.3441 147.6C96.9841 146.76 96.4441 146.11 95.7241 145.65C95.0041 145.19 94.0941 144.96 92.9941 144.96C91.8541 144.96 90.9041 145.22 90.1441 145.74C89.4041 146.26 88.8441 146.97 88.4641 147.87C88.1041 148.77 87.9241 149.81 87.9241 150.99C87.9241 152.13 88.1041 153.16 88.4641 154.08C88.8441 154.98 89.4241 155.7 90.2041 156.24C90.9841 156.76 91.9741 157.02 93.1741 157.02C94.4341 157.02 95.4541 156.74 96.2341 156.18C97.0341 155.62 97.5141 154.97 97.6741 154.23H100.374C100.154 155.33 99.7141 156.28 99.0541 157.08C98.3941 157.88 97.5641 158.49 96.5641 158.91C95.5641 159.33 94.4341 159.54 93.1741 159.54ZM110.883 159.48C108.783 159.48 107.153 159.03 105.993 158.13C104.853 157.23 104.263 156 104.223 154.44H106.923C106.963 155.06 107.273 155.65 107.853 156.21C108.453 156.75 109.463 157.02 110.883 157.02C112.163 157.02 113.143 156.77 113.823 156.27C114.503 155.75 114.843 155.12 114.843 154.38C114.843 153.72 114.593 153.21 114.093 152.85C113.593 152.47 112.783 152.22 111.663 152.1L109.923 151.92C108.403 151.76 107.163 151.31 106.203 150.57C105.243 149.81 104.763 148.75 104.763 147.39C104.763 146.37 105.023 145.5 105.543 144.78C106.063 144.04 106.783 143.48 107.703 143.1C108.623 142.7 109.683 142.5 110.883 142.5C112.683 142.5 114.143 142.9 115.263 143.7C116.383 144.5 116.963 145.69 117.003 147.27H114.303C114.283 146.63 113.983 146.09 113.403 145.65C112.843 145.19 112.003 144.96 110.883 144.96C109.763 144.96 108.913 145.19 108.333 145.65C107.753 146.11 107.463 146.69 107.463 147.39C107.463 147.99 107.663 148.47 108.063 148.83C108.483 149.19 109.163 149.42 110.103 149.52L111.843 149.7C113.563 149.88 114.943 150.36 115.983 151.14C117.023 151.9 117.543 152.98 117.543 154.38C117.543 155.38 117.253 156.27 116.673 157.05C116.113 157.81 115.333 158.41 114.333 158.85C113.333 159.27 112.183 159.48 110.883 159.48ZM127.867 159.48C125.767 159.48 124.137 159.03 122.977 158.13C121.837 157.23 121.247 156 121.207 154.44H123.907C123.947 155.06 124.257 155.65 124.837 156.21C125.437 156.75 126.447 157.02 127.867 157.02C129.147 157.02 130.127 156.77 130.807 156.27C131.487 155.75 131.827 155.12 131.827 154.38C131.827 153.72 131.577 153.21 131.077 152.85C130.577 152.47 129.767 152.22 128.647 152.1L126.907 151.92C125.387 151.76 124.147 151.31 123.187 150.57C122.227 149.81 121.747 148.75 121.747 147.39C121.747 146.37 122.007 145.5 122.527 144.78C123.047 144.04 123.767 143.48 124.687 143.1C125.607 142.7 126.667 142.5 127.867 142.5C129.667 142.5 131.127 142.9 132.247 143.7C133.367 144.5 133.947 145.69 133.987 147.27H131.287C131.267 146.63 130.967 146.09 130.387 145.65C129.827 145.19 128.987 144.96 127.867 144.96C126.747 144.96 125.897 145.19 125.317 145.65C124.737 146.11 124.447 146.69 124.447 147.39C124.447 147.99 124.647 148.47 125.047 148.83C125.467 149.19 126.147 149.42 127.087 149.52L128.827 149.7C130.547 149.88 131.927 150.36 132.967 151.14C134.007 151.9 134.527 152.98 134.527 154.38C134.527 155.38 134.237 156.27 133.657 157.05C133.097 157.81 132.317 158.41 131.317 158.85C130.317 159.27 129.167 159.48 127.867 159.48ZM153.567 159.18C152.367 159.18 151.327 159.01 150.447 158.67C149.587 158.33 148.917 157.75 148.437 156.93C147.977 156.09 147.747 154.96 147.747 153.54V138.12H150.507V153.9C150.507 154.76 150.737 155.43 151.197 155.91C151.677 156.37 152.347 156.6 153.207 156.6H156.027V159.18H153.567ZM144.987 145.14V142.98H156.027V145.14H144.987ZM161.001 159V137.1H163.881V150.18H163.161C163.161 148.6 163.361 147.24 163.761 146.1C164.181 144.94 164.821 144.05 165.681 143.43C166.541 142.81 167.641 142.5 168.981 142.5H169.101C171.021 142.5 172.471 143.14 173.451 144.42C174.431 145.68 174.921 147.49 174.921 149.85V159H172.041V149.25C172.041 147.95 171.671 146.94 170.931 146.22C170.211 145.5 169.271 145.14 168.111 145.14C166.831 145.14 165.801 145.57 165.021 146.43C164.261 147.27 163.881 148.38 163.881 149.76V159H161.001ZM187.9 159.54C186.5 159.54 185.29 159.3 184.27 158.82C183.25 158.34 182.42 157.71 181.78 156.93C181.14 156.13 180.66 155.24 180.34 154.26C180.04 153.28 179.89 152.28 179.89 151.26V150.72C179.89 149.68 180.04 148.67 180.34 147.69C180.66 146.71 181.14 145.83 181.78 145.05C182.42 144.25 183.23 143.62 184.21 143.16C185.21 142.68 186.38 142.44 187.72 142.44C189.46 142.44 190.89 142.82 192.01 143.58C193.15 144.32 193.99 145.28 194.53 146.46C195.09 147.64 195.37 148.9 195.37 150.24V151.53H181.15V149.37H193.27L192.61 150.54C192.61 149.4 192.43 148.42 192.07 147.6C191.71 146.76 191.17 146.11 190.45 145.65C189.73 145.19 188.82 144.96 187.72 144.96C186.58 144.96 185.63 145.22 184.87 145.74C184.13 146.26 183.57 146.97 183.19 147.87C182.83 148.77 182.65 149.81 182.65 150.99C182.65 152.13 182.83 153.16 183.19 154.08C183.57 154.98 184.15 155.7 184.93 156.24C185.71 156.76 186.7 157.02 187.9 157.02C189.16 157.02 190.18 156.74 190.96 156.18C191.76 155.62 192.24 154.97 192.4 154.23H195.1C194.88 155.33 194.44 156.28 193.78 157.08C193.12 157.88 192.29 158.49 191.29 158.91C190.29 159.33 189.16 159.54 187.9 159.54ZM210.846 159.12V156.42H216.306C217.626 156.42 218.796 156.21 219.816 155.79C220.856 155.35 221.736 154.75 222.456 153.99C223.196 153.23 223.756 152.34 224.136 151.32C224.516 150.3 224.706 149.2 224.706 148.02C224.706 146.78 224.516 145.66 224.136 144.66C223.756 143.64 223.196 142.76 222.456 142.02C221.736 141.26 220.856 140.68 219.816 140.28C218.796 139.88 217.626 139.68 216.306 139.68H210.846V136.98H216.006C217.986 136.98 219.706 137.29 221.166 137.91C222.626 138.51 223.836 139.33 224.796 140.37C225.776 141.39 226.506 142.54 226.986 143.82C227.466 145.08 227.706 146.37 227.706 147.69V148.35C227.706 149.63 227.466 150.91 226.986 152.19C226.506 153.47 225.776 154.63 224.796 155.67C223.836 156.71 222.626 157.55 221.166 158.19C219.706 158.81 217.986 159.12 216.006 159.12H210.846ZM208.506 159.12V136.98H211.446V159.12H208.506ZM242.406 159V154.2H241.926V148.65C241.926 147.55 241.636 146.72 241.056 146.16C240.496 145.6 239.666 145.32 238.566 145.32C237.946 145.32 237.306 145.33 236.646 145.35C235.986 145.37 235.356 145.39 234.756 145.41C234.156 145.43 233.636 145.46 233.196 145.5V142.98C233.636 142.94 234.096 142.91 234.576 142.89C235.076 142.85 235.586 142.83 236.106 142.83C236.626 142.81 237.126 142.8 237.606 142.8C239.246 142.8 240.586 143 241.626 143.4C242.666 143.78 243.436 144.41 243.936 145.29C244.436 146.17 244.686 147.36 244.686 148.86V159H242.406ZM237.156 159.42C235.956 159.42 234.916 159.22 234.036 158.82C233.176 158.4 232.506 157.8 232.026 157.02C231.566 156.24 231.336 155.3 231.336 154.2C231.336 153.06 231.586 152.11 232.086 151.35C232.606 150.59 233.356 150.02 234.336 149.64C235.316 149.24 236.496 149.04 237.876 149.04H242.226V151.2H237.756C236.596 151.2 235.706 151.48 235.086 152.04C234.466 152.6 234.156 153.32 234.156 154.2C234.156 155.08 234.466 155.79 235.086 156.33C235.706 156.87 236.596 157.14 237.756 157.14C238.436 157.14 239.086 157.02 239.706 156.78C240.326 156.52 240.836 156.1 241.236 155.52C241.656 154.92 241.886 154.1 241.926 153.06L242.706 154.2C242.606 155.34 242.326 156.3 241.866 157.08C241.426 157.84 240.806 158.42 240.006 158.82C239.226 159.22 238.276 159.42 237.156 159.42ZM257.112 159.18C255.912 159.18 254.872 159.01 253.992 158.67C253.132 158.33 252.462 157.75 251.982 156.93C251.522 156.09 251.292 154.96 251.292 153.54V138.12H254.052V153.9C254.052 154.76 254.282 155.43 254.742 155.91C255.222 156.37 255.892 156.6 256.752 156.6H259.572V159.18H257.112ZM248.532 145.14V142.98H259.572V145.14H248.532ZM274.177 159V154.2H273.697V148.65C273.697 147.55 273.407 146.72 272.827 146.16C272.267 145.6 271.437 145.32 270.337 145.32C269.717 145.32 269.077 145.33 268.417 145.35C267.757 145.37 267.127 145.39 266.527 145.41C265.927 145.43 265.407 145.46 264.967 145.5V142.98C265.407 142.94 265.867 142.91 266.347 142.89C266.847 142.85 267.357 142.83 267.877 142.83C268.397 142.81 268.897 142.8 269.377 142.8C271.017 142.8 272.357 143 273.397 143.4C274.437 143.78 275.207 144.41 275.707 145.29C276.207 146.17 276.457 147.36 276.457 148.86V159H274.177ZM268.927 159.42C267.727 159.42 266.687 159.22 265.807 158.82C264.947 158.4 264.277 157.8 263.797 157.02C263.337 156.24 263.107 155.3 263.107 154.2C263.107 153.06 263.357 152.11 263.857 151.35C264.377 150.59 265.127 150.02 266.107 149.64C267.087 149.24 268.267 149.04 269.647 149.04H273.997V151.2H269.527C268.367 151.2 267.477 151.48 266.857 152.04C266.237 152.6 265.927 153.32 265.927 154.2C265.927 155.08 266.237 155.79 266.857 156.33C267.477 156.87 268.367 157.14 269.527 157.14C270.207 157.14 270.857 157.02 271.477 156.78C272.097 156.52 272.607 156.1 273.007 155.52C273.427 154.92 273.657 154.1 273.697 153.06L274.477 154.2C274.377 155.34 274.097 156.3 273.637 157.08C273.197 157.84 272.577 158.42 271.777 158.82C270.997 159.22 270.047 159.42 268.927 159.42Z" fill="#2D3047"/>
</svg>
